<?xml version="1.0" encoding="UTF-8"?><svg id="Layer_1" xmlns="http://www.w3.org/2000/svg" viewBox="0 0 400 600"><defs><style>.cls-1{fill:#f15a29;}.cls-2{fill:#dd1c30;}.cls-3{fill:#2e3a7b;}.cls-4{fill:#efe8e3;}</style></defs><path class="cls-2" d="M92.76,457.2v9.6h15.24v4.96h-15.24v12.08h-5.86v-31.56h23.04v4.91h-17.18Z"/><path class="cls-2" d="M117.78,452.29h5.86v31.56h-5.86v-31.56Z"/><path class="cls-2" d="M154.97,483.85l-6.45-9.24c-.41.04-.81.04-1.22.04h-7.12v9.2h-5.86v-31.56h12.98c8.3,0,13.43,4.24,13.43,11.23,0,4.78-2.43,8.3-6.72,9.96l7.26,10.37h-6.31ZM147.03,457.25h-6.85v12.58h6.85c5.14,0,7.8-2.34,7.8-6.31s-2.66-6.27-7.8-6.27Z"/><path class="cls-2" d="M193.1,478.93v4.91h-23.67v-31.56h23.04v4.91h-17.18v8.21h15.24v4.82h-15.24v8.7h17.81Z"/><path class="cls-2" d="M216.41,452.29h5.86v26.6h16.5v4.96h-22.36v-31.56Z"/><path class="cls-2" d="M245.57,452.29h5.86v31.56h-5.86v-31.56Z"/><path class="cls-2" d="M267.17,457.2v9.6h15.24v4.96h-15.24v12.08h-5.86v-31.56h23.04v4.91h-17.18Z"/><path class="cls-2" d="M315.04,478.93v4.91h-23.67v-31.56h23.04v4.91h-17.18v8.21h15.24v4.82h-15.24v8.7h17.81Z"/><path class="cls-2" d="M66.75,505.66c0,6.94-5.14,11.23-13.43,11.23h-7.12v9.11h-5.86v-31.56h12.98c8.3,0,13.43,4.24,13.43,11.23ZM60.84,505.66c0-3.97-2.66-6.27-7.8-6.27h-6.85v12.53h6.85c5.14,0,7.8-2.3,7.8-6.27Z"/><path class="cls-2" d="M95.42,525.99l-6.45-9.24c-.41.04-.81.04-1.22.04h-7.12v9.2h-5.86v-31.56h12.98c8.3,0,13.43,4.24,13.43,11.23,0,4.78-2.43,8.3-6.72,9.96l7.26,10.37h-6.31ZM87.49,499.39h-6.85v12.58h6.85c5.14,0,7.8-2.34,7.8-6.31s-2.66-6.27-7.8-6.27Z"/><path class="cls-2" d="M107.63,510.21c0-9.33,7.21-16.23,17-16.23s17,6.85,17,16.23-7.21,16.23-17,16.23-17-6.9-17-16.23ZM135.72,510.21c0-6.45-4.73-11.09-11.09-11.09s-11.09,4.64-11.09,11.09,4.73,11.09,11.09,11.09,11.09-4.64,11.09-11.09Z"/><path class="cls-2" d="M155.96,499.39h-10.46v-4.96h26.78v4.96h-10.46v26.6h-5.86v-26.6Z"/><path class="cls-2" d="M202.53,521.08v4.91h-23.67v-31.56h23.04v4.91h-17.18v8.21h15.24v4.82h-15.24v8.7h17.81Z"/><path class="cls-2" d="M208.84,510.21c0-9.42,7.21-16.23,16.91-16.23,5.14,0,9.56,1.85,12.49,5.27l-3.79,3.56c-2.3-2.48-5.14-3.7-8.43-3.7-6.54,0-11.27,4.6-11.27,11.09s4.73,11.09,11.27,11.09c3.29,0,6.13-1.22,8.43-3.74l3.79,3.61c-2.93,3.43-7.35,5.27-12.53,5.27-9.65,0-16.86-6.81-16.86-16.23Z"/><path class="cls-2" d="M252.07,499.39h-10.46v-4.96h26.78v4.96h-10.46v26.6h-5.86v-26.6Z"/><path class="cls-2" d="M274.96,494.44h5.86v31.56h-5.86v-31.56Z"/><path class="cls-2" d="M289.25,510.21c0-9.33,7.21-16.23,17-16.23s17,6.85,17,16.23-7.21,16.23-17,16.23-17-6.9-17-16.23ZM317.34,510.21c0-6.45-4.73-11.09-11.09-11.09s-11.09,4.64-11.09,11.09,4.73,11.09,11.09,11.09,11.09-4.64,11.09-11.09Z"/><path class="cls-2" d="M359.67,494.44v31.56h-4.82l-17.4-21.37v21.37h-5.82v-31.56h4.82l17.4,21.37v-21.37h5.82Z"/><path class="cls-2" d="M88.36,564.8l2.03-4.55c2.52,2.03,6.54,3.47,10.41,3.47,4.91,0,6.99-1.76,6.99-4.1,0-6.81-18.75-2.34-18.75-14.07,0-5.09,4.06-9.42,12.71-9.42,3.79,0,7.75.99,10.5,2.79l-1.85,4.55c-2.84-1.67-5.95-2.48-8.7-2.48-4.87,0-6.85,1.89-6.85,4.28,0,6.72,18.71,2.34,18.71,13.93,0,5.05-4.1,9.38-12.76,9.38-4.91,0-9.83-1.53-12.44-3.79Z"/><path class="cls-2" d="M134.48,557v11.13h-5.86v-11.05l-12.4-20.51h6.27l9.24,15.37,9.33-15.37h5.77l-12.35,20.42Z"/><path class="cls-2" d="M149.49,564.8l2.03-4.55c2.52,2.03,6.54,3.47,10.41,3.47,4.91,0,6.99-1.76,6.99-4.1,0-6.81-18.75-2.34-18.75-14.07,0-5.09,4.06-9.42,12.71-9.42,3.79,0,7.75.99,10.5,2.79l-1.85,4.55c-2.84-1.67-5.95-2.48-8.7-2.48-4.87,0-6.85,1.89-6.85,4.28,0,6.72,18.71,2.34,18.71,13.93,0,5.05-4.1,9.38-12.76,9.38-4.91,0-9.83-1.53-12.44-3.79Z"/><path class="cls-2" d="M188.62,541.54h-10.46v-4.96h26.78v4.96h-10.46v26.6h-5.86v-26.6Z"/><path class="cls-2" d="M235.18,563.23v4.91h-23.67v-31.56h23.04v4.91h-17.18v8.21h15.24v4.82h-15.24v8.7h17.81Z"/><path class="cls-2" d="M272.87,568.14l-.04-20.92-10.37,17.31h-2.61l-10.37-17.04v20.65h-5.59v-31.56h4.82l12.53,20.92,12.31-20.92h4.82l.04,31.56h-5.55Z"/><path class="cls-2" d="M286.44,564.8l2.03-4.55c2.52,2.03,6.54,3.47,10.41,3.47,4.91,0,6.99-1.76,6.99-4.1,0-6.81-18.75-2.34-18.75-14.07,0-5.09,4.06-9.42,12.71-9.42,3.79,0,7.75.99,10.5,2.79l-1.85,4.55c-2.84-1.67-5.95-2.48-8.7-2.48-4.87,0-6.85,1.89-6.85,4.28,0,6.72,18.71,2.34,18.71,13.93,0,5.05-4.1,9.38-12.76,9.38-4.91,0-9.83-1.53-12.44-3.79Z"/><path class="cls-4" d="M354.7,104.61c-.13,21.23-.31,49.62-.47,74.42-.35,54.63,8.35,112.92-24.38,160.36-30.13,43.66-79.62,70.15-128.83,86.55h-2.03c-49.2-16.39-98.7-42.89-128.83-86.54-32.74-47.44-24.04-105.73-24.38-160.36-.16-24.81-.31-49.62-.47-74.42,0,0,144.69-164.72,309.4,0Z"/><path class="cls-2" d="M198.33,430.01l-.63-.21c-60.4-20.13-104.43-49.77-130.88-88.09-27.63-40.04-26.54-87.4-25.49-133.2.22-9.7.45-19.73.39-29.43l-.48-75.96,1.02-1.16c.64-.73,16.08-18.16,42.72-36.17,24.63-16.65,63.82-36.81,110.6-38.33,56.35-1.82,110.86,23.17,161.98,74.29l1.2,1.2-.48,76.11c-.06,9.7.17,19.73.39,29.43,1.05,45.8,2.14,93.15-25.49,133.2-26.45,38.32-70.48,67.96-130.88,88.09l-.61.2-3.35.02ZM49.36,106.18l.46,72.84c.06,9.82-.17,19.91-.39,29.67-1.02,44.51-2.08,90.53,24.06,128.42,25.34,36.71,67.78,65.24,126.15,84.8h.72c58.38-19.56,100.82-48.09,126.16-84.81,26.14-37.88,25.09-83.91,24.06-128.42-.22-9.76-.46-19.85-.39-29.67l.46-72.73c-49.1-48.65-101.17-72.46-154.73-70.74-44.78,1.43-82.46,20.8-106.18,36.8-22.1,14.9-36.54,29.73-40.37,33.84Z"/><path class="cls-2" d="M229.77,102.59s-66.11,23.99-76.96,109.08c0,0-.87-18.23-18.67-36.47,1.52,8.89,1.58,18.34.45,27.27-1.6,12.68-8.96,23.49-12.24,35.67-3.12,11.55-3.46,24.17-2.97,36.04-.06-1.53-3.01-4.68-3.78-5.97-2.99-4.93-5.35-10.41-8.52-15.16-2.64,9.52-1.85,20-.78,29.71,8.88,80.22,118.03,121.8,168.43,51.85,12.97-17.99,20.47-40.42,19.95-62.67-.5-21.6-7.58-42.21-17.29-61.32-9.37-18.45-20.22-33-19.08-54.76,0,0-19.1,6.95-16.5,38.64,0,0-40.57-20.63-12.04-91.93Z"/><path class="cls-2" d="M206.14,370.65c-8.04,0-16.31-1.08-24.68-3.28-40.78-10.72-71.14-44.7-75.55-84.55-1.03-9.34-1.91-20.13.79-29.86l.23-.81.47.7c1.8,2.7,3.37,5.67,4.88,8.55,1.16,2.2,2.36,4.48,3.65,6.62.23.37.65.93,1.15,1.56.64.82,1.32,1.7,1.84,2.52-.45-13.84.53-24.71,3.06-34.07,1.37-5.09,3.48-10,5.51-14.75,2.84-6.64,5.79-13.51,6.72-20.87,1.17-9.23,1.01-18.62-.44-27.15l-.21-1.22.87.89c9.24,9.47,13.85,18.94,16.1,25.21,1.29,3.6,1.96,6.55,2.31,8.57,6.14-42.37,26.27-68.89,42.27-83.78,17.74-16.5,34.38-22.65,34.54-22.71l.81-.29-.32.8c-8.1,20.24-15.49,49.22-4.71,72.35,5.51,11.83,13.67,17.37,15.95,18.75-2.25-31.01,16.61-38.23,16.81-38.3l.55-.2-.03.58c-.93,17.64,6.22,30.78,13.79,44.69,1.73,3.18,3.52,6.47,5.25,9.88,11.21,22.07,16.88,42.18,17.33,61.48.51,21.94-6.6,44.28-20.02,62.9-16.76,23.25-41.48,35.79-68.9,35.79ZM107.23,254c-2.39,9.38-1.54,19.73-.54,28.73,4.37,39.54,34.51,73.25,74.98,83.89,36.61,9.63,71.28-2.42,92.76-32.22,13.32-18.49,20.38-40.66,19.88-62.43-.45-19.19-6.09-39.19-17.25-61.15-1.72-3.39-3.51-6.68-5.24-9.86-7.53-13.85-14.65-26.93-13.91-44.47-3.08,1.46-18,10.04-15.7,38l.06.69-.62-.31c-.1-.05-10.34-5.38-16.89-19.41-5.99-12.81-10.06-35.71,4.34-72.18-3.55,1.45-18.1,7.93-33.48,22.25-16.26,15.13-36.81,42.37-42.4,86.19l-.77-.03c0-.18-1.04-17.71-17.7-35.32,1.28,8.27,1.37,17.29.25,26.15-.94,7.47-3.91,14.39-6.77,21.07-2.03,4.73-4.12,9.62-5.48,14.65-2.63,9.75-3.57,21.17-2.95,35.93h0s0,0,0,0l-.77.03c-.04-.94-1.48-2.79-2.53-4.15-.51-.66-.95-1.23-1.2-1.64-1.31-2.15-2.51-4.44-3.68-6.66-1.37-2.6-2.78-5.29-4.37-7.76Z"/><path class="cls-1" d="M179.39,209.58s31.58,20.43-.93,74.3c0,0,1.86-32.51-26.94-43.65,0,0,18.58,13,0,66.87-2.89,8.39-1.86,19.61.47,27.9,5.97,21.24,25.86,31.25,46.47,33.97,10.74,1.42,21.12-2.11,30.28-7.56,15.45-9.21,23.28-28.01,21.15-45.58-.93-7.72-4.42-14.8-5.92-22.43-2.18-11.09-2.23-22.65.43-33.67-4.08,4.41-7.62,9.51-10.56,14.73-3.67,6.53-5.71,13.03-6.32,20.5-.15,1.81-.29,3.7-1.23,5.25-.4.66-.93,1.24-1.56,1.68-3.61-10.48-.31-21.5.3-32.18.65-11.25.04-22.62-5.97-32.5-8.75-14.37-23.75-23.25-39.68-27.64Z"/><path class="cls-1" d="M203.28,370.58c-1.68,0-3.34-.11-4.99-.33-24.91-3.29-42.24-16.02-47.55-34.91-2.24-7.98-3.54-19.71-.45-28.67,17.94-52.04.65-65.27.47-65.4l-8.17-5.89,9.38,3.63c22.7,8.79,26.9,30.68,27.63,40.29,11.26-20.04,14.83-38.03,10.31-52.22-3.61-11.34-11.18-16.38-11.25-16.43l-6.94-4.53,7.99,2.19c12.75,3.51,30.12,11.25,40.45,28.21,6.5,10.66,6.76,22.79,6.16,33.24-.17,3.02-.56,6.1-.94,9.07-.86,6.8-1.74,13.81-.07,20.46.66-1.24.79-2.84.91-4.39.62-7.65,2.68-14.33,6.48-21.09,3.22-5.72,6.83-10.75,10.73-14.97l3.37-3.65-1.17,4.83c-2.5,10.35-2.64,21.8-.42,33.12.64,3.28,1.69,6.54,2.7,9.69,1.32,4.12,2.69,8.38,3.23,12.83,2.29,18.89-6.47,37.72-21.78,46.84-8.99,5.36-17.76,8.06-26.13,8.06ZM156.18,243.82c4.51,7.54,9.71,25.59-3.44,63.7-2.9,8.4-1.64,19.52.49,27.13,2.95,10.49,12.76,28.72,45.39,33.04,9.26,1.22,19.16-1.26,29.45-7.39,14.45-8.61,22.7-26.42,20.53-44.31-.51-4.21-1.78-8.16-3.12-12.35-1.04-3.22-2.11-6.56-2.78-9.98-1.95-9.91-2.14-19.93-.57-29.29-2.55,3.21-4.95,6.8-7.16,10.73-3.62,6.43-5.57,12.77-6.15,19.97-.16,1.92-.33,4.02-1.41,5.82-.49.81-1.16,1.53-1.93,2.07l-1.41.99-.56-1.63c-2.7-7.85-1.68-15.95-.69-23.78.37-2.93.75-5.97.92-8.9.58-10.06.34-21.69-5.78-31.75-8.46-13.89-21.93-21.34-33.34-25.32,2.58,2.86,5.69,7.3,7.72,13.57,6.48,20.04-3.37,42.83-12.78,58.42l-2.69,4.46.29-5.2c.02-.29,1.26-27.67-20.98-39.98Z"/><path class="cls-3" d="M201.81,284.63c-.54,3.97-1.55,7.71-.47,11.75,1.49,5.57,5.05,9.53,6.35,15.45.58,2.64.98,5.47.75,8.22-.04.49-1.36,6.7-2.02,6.11,0,0,6.98,6.3,8.94-16.12,0,0,11.77,17.58,10.61,33.51-1.16,15.93-11.19,25.53-25.58,26.22s-26.22-12.47-26.45-30.19c-.07-5.21.77-9.6,3.21-13.91,3.19-5.63,4.51-10.68,4.53-17.58,0,0,6.26,7.76,5.88,18.09-.38,10.33,7.54-16.72,7.89-25.28.27-6.48,1.77-12.53,6.36-16.27Z"/><path class="cls-3" d="M199.34,370.59c-5.97,0-11.72-2.34-16.31-6.66-6.16-5.8-9.76-14.67-9.89-24.35-.07-5.72.95-10.13,3.32-14.31,3.13-5.52,4.41-10.5,4.42-17.19v-2.26s1.42,1.76,1.42,1.76c.26.33,6.44,8.12,6.05,18.62,0,.1,0,.2,0,.29,2-4.55,6.04-19.29,6.3-25.64.33-7.96,2.51-13.48,6.65-16.86l1.57-1.28-.27,2.01c-.1.77-.23,1.53-.35,2.29-.5,3.11-.97,6.04-.14,9.14.68,2.54,1.79,4.71,2.96,7.01,1.32,2.58,2.68,5.24,3.39,8.48.73,3.32.97,6.01.77,8.46,0,.05-.65,3.97-1.59,5.86.44.18,1.04.3,1.7.04,1.47-.59,4.11-3.47,5.21-16.05l.2-2.26,1.26,1.89c.49.73,11.91,18,10.74,34.02-1.16,15.91-11.25,26.24-26.34,26.96-.36.02-.73.03-1.09.03ZM182.42,310.6c-.31,5.78-1.69,10.4-4.56,15.47-2.22,3.92-3.18,8.08-3.11,13.5.12,9.24,3.54,17.7,9.38,23.2,4.55,4.28,10.31,6.49,16.23,6.2,14.43-.69,23.7-10.21,24.82-25.48.9-12.39-6.3-26.01-9.25-31.02-1,8.81-3.02,13.87-6,15.04-2.12.83-3.84-.59-4.02-.75,0,0,0,0,0,0,0,0,0,0,0,0h0l1.07-1.19c-.13-.12-.31-.18-.49-.16-.21.02-.34.12-.37.16.48-.58,1.48-4.85,1.55-5.58.19-2.28-.04-4.82-.74-7.98-.67-3.03-1.98-5.6-3.26-8.09-1.16-2.27-2.36-4.62-3.09-7.32-.91-3.39-.4-6.61.09-9.72-2.7,3.14-4.14,7.77-4.4,14.07-.17,4.01-1.9,11.51-3.33,16.71-3.23,11.72-4.4,11.67-5.03,11.65-1.25-.05-1.18-1.91-1.13-3.15.25-6.89-2.58-12.66-4.34-15.56Z"/></svg>
